<svg width="24" height="22" viewBox="0 0 24 22" fill="none" xmlns="http://www.w3.org/2000/svg">
<g opacity="0.5">
<path fill-rule="evenodd" clip-rule="evenodd" d="M9 0.5C9.64565 0.5 10.2189 0.913145 10.423 1.52566L15 15.2566L16.577 10.5257C16.7811 9.91315 17.3544 9.5 18 9.5H22C22.8284 9.5 23.5 10.1716 23.5 11C23.5 11.8284 22.8284 12.5 22 12.5H19.0811L16.423 20.4743C16.2189 21.0869 15.6456 21.5 15 21.5C14.3544 21.5 13.7811 21.0869 13.577 20.4743L9 6.74342L7.42303 11.4743C7.21885 12.0869 6.64565 12.5 6 12.5H2C1.17157 12.5 0.5 11.8284 0.5 11C0.5 10.1716 1.17157 9.5 2 9.5H4.91886L7.57697 1.52566C7.78115 0.913145 8.35435 0.5 9 0.5Z" fill="#319979"/>
</g>
</svg>
