<svg width="23" height="22" viewBox="0 0 23 22" fill="none" xmlns="http://www.w3.org/2000/svg">
<path fill-rule="evenodd" clip-rule="evenodd" d="M8.5 0.5C9.14565 0.5 9.71885 0.913145 9.92303 1.52566L14.5 15.2566L16.077 10.5257C16.2811 9.91315 16.8544 9.5 17.5 9.5H21.5C22.3284 9.5 23 10.1716 23 11C23 11.8284 22.3284 12.5 21.5 12.5H18.5811L15.923 20.4743C15.7189 21.0869 15.1456 21.5 14.5 21.5C13.8544 21.5 13.2811 21.0869 13.077 20.4743L8.5 6.74342L6.92303 11.4743C6.71885 12.0869 6.14565 12.5 5.5 12.5H1.5C0.671573 12.5 0 11.8284 0 11C0 10.1716 0.671573 9.5 1.5 9.5H4.41886L7.07697 1.52566C7.28115 0.913145 7.85435 0.5 8.5 0.5Z" fill="#06CD31"/>
</svg>
