<svg width="22" height="24" viewBox="0 0 22 24" fill="none" xmlns="http://www.w3.org/2000/svg">
<path d="M15.8891 2.4C14.8677 3.30469 13.9454 4.25578 13.1283 5.21109C11.7896 3.45094 10.1298 1.66547 8.25 0C3.42473 4.27359 0 9.84188 0 13.2C0 19.1648 4.92496 24 11 24C17.075 24 22 19.1648 22 13.2C22 10.703 19.4474 5.55281 15.8891 2.4ZM14.933 18.368C13.8693 19.0786 12.5577 19.5 11.1404 19.5C7.59737 19.5 4.71429 17.2622 4.71429 13.6289C4.71429 11.8191 5.90808 10.2244 8.28879 7.5C8.62911 7.87406 13.1421 13.3753 13.1421 13.3753L16.0212 10.2403C16.2245 10.5614 16.4096 10.8755 16.5746 11.1764C17.9177 13.6228 17.351 16.7531 14.933 18.368Z" fill="white"/>
</svg>
