<svg width="27" height="24" viewBox="0 0 27 24" fill="none" xmlns="http://www.w3.org/2000/svg">
<g filter="url(#filter0_d_4_624)">
<path d="M7.79284 5.15527H7.78457C6.97039 5.15741 6.31176 5.79861 6.31397 6.58781C6.31618 7.37702 6.97811 8.01448 7.79284 8.01234C8.60702 8.0102 9.26564 7.36901 9.26344 6.5798C9.26123 5.7938 8.60426 5.15741 7.79284 5.15527Z" fill="white"/>
<path d="M23.9998 16.1432C23.9998 16.1101 23.9993 16.0764 23.9982 16.0433C23.9976 16.0155 23.996 15.9877 23.9949 15.9599C23.9932 15.922 23.9905 15.884 23.9877 15.8456C23.9849 15.8141 23.9822 15.7825 23.9789 15.751C23.9772 15.7339 23.9761 15.7163 23.9739 15.6992V8.85974C23.9739 8.856 23.9734 8.85226 23.9734 8.84852V4.30029C24.2265 2.18488 22.6611 0.270906 20.4772 0.0256479C20.1728 -0.00854929 19.865 -0.00854929 19.5605 0.0256479H14.8541H10.1467H5.43976C5.13527 -0.00854929 4.82747 -0.00854929 4.52298 0.0256479C2.3386 0.270906 0.773674 2.18488 1.02686 4.30029V15.6992C0.99156 15.9941 0.99156 16.2923 1.02686 16.5872C1.28005 18.7026 3.25593 20.2191 5.43976 19.9738H19.561C19.8655 20.008 20.1733 20.008 20.4778 19.9738C22.5066 19.7462 24.0009 18.078 23.9998 16.1459C23.9998 16.1448 23.9998 16.1437 23.9998 16.1432ZM16.8658 7.38926C16.4036 6.9447 15.6573 6.9447 15.195 7.38926L9.38157 13.0206C9.15265 13.238 8.78639 13.238 8.55802 13.0206L7.45204 11.9492C6.98979 11.5047 6.24345 11.5047 5.7812 11.9492L2.79202 14.8448V4.30029C2.79202 2.50281 3.58414 1.73551 5.43976 1.73551H10.1461H14.8536H19.5599C21.4155 1.73551 22.2076 2.50281 22.2076 4.30029V12.5643L16.8658 7.38926Z" fill="white"/>
</g>
<defs>
<filter id="filter0_d_4_624" x="0" y="0" width="27.0002" height="23.9999" filterUnits="userSpaceOnUse" color-interpolation-filters="sRGB">
<feFlood flood-opacity="0" result="BackgroundImageFix"/>
<feColorMatrix in="SourceAlpha" type="matrix" values="0 0 0 0 0 0 0 0 0 0 0 0 0 0 0 0 0 0 127 0" result="hardAlpha"/>
<feOffset dx="1" dy="2"/>
<feGaussianBlur stdDeviation="1"/>
<feComposite in2="hardAlpha" operator="out"/>
<feColorMatrix type="matrix" values="0 0 0 0 0 0 0 0 0 0 0 0 0 0 0 0 0 0 0.3 0"/>
<feBlend mode="normal" in2="BackgroundImageFix" result="effect1_dropShadow_4_624"/>
<feBlend mode="normal" in="SourceGraphic" in2="effect1_dropShadow_4_624" result="shape"/>
</filter>
</defs>
</svg>
