<svg width="20" height="20" viewBox="0 0 20 20" fill="none" xmlns="http://www.w3.org/2000/svg">
<g clip-path="url(#clip0_4_637)">
<path d="M10 0C8.02219 0 6.08879 0.58649 4.4443 1.6853C2.79981 2.78412 1.51809 4.3459 0.761209 6.17316C0.00433284 8.00042 -0.1937 10.0111 0.192152 11.9509C0.578004 13.8907 1.53041 15.6725 2.92894 17.0711C4.32746 18.4696 6.10929 19.422 8.0491 19.8078C9.98891 20.1937 11.9996 19.9957 13.8268 19.2388C15.6541 18.4819 17.2159 17.2002 18.3147 15.5557C19.4135 13.9112 20 11.9778 20 10C19.9968 7.34881 18.9422 4.80711 17.0676 2.93244C15.1929 1.05776 12.6512 0.00317571 10 0ZM10 16C9.80222 16 9.60888 15.9413 9.44443 15.8315C9.27998 15.7216 9.15181 15.5654 9.07612 15.3827C9.00044 15.2 8.98063 14.9989 9.01922 14.8049C9.0578 14.6109 9.15304 14.4327 9.2929 14.2929C9.43275 14.153 9.61093 14.0578 9.80491 14.0192C9.99889 13.9806 10.2 14.0004 10.3827 14.0761C10.5654 14.1518 10.7216 14.28 10.8315 14.4444C10.9414 14.6089 11 14.8022 11 15C11 15.2652 10.8946 15.5196 10.7071 15.7071C10.5196 15.8946 10.2652 16 10 16ZM11.871 10.458C11.619 10.5983 11.4068 10.8004 11.2544 11.0453C11.102 11.2902 11.0145 11.5699 11 11.858V12C11 12.2652 10.8946 12.5196 10.7071 12.7071C10.5196 12.8946 10.2652 13 10 13C9.73479 13 9.48043 12.8946 9.2929 12.7071C9.10536 12.5196 9 12.2652 9 12V11.859C9.01429 11.2336 9.18688 10.6221 9.50167 10.0815C9.81645 9.54098 10.2631 9.08905 10.8 8.768C11.0744 8.59386 11.2854 8.33588 11.4016 8.03233C11.5178 7.72879 11.533 7.39588 11.445 7.083C11.3773 6.83692 11.2469 6.61263 11.0665 6.43208C10.8862 6.25153 10.662 6.12091 10.416 6.053C10.189 5.98956 9.95028 5.97994 9.71888 6.0249C9.48748 6.06986 9.26976 6.16816 9.083 6.312C8.90094 6.45178 8.7536 6.63171 8.65248 6.83777C8.55136 7.04384 8.49918 7.27046 8.5 7.5C8.5 7.76521 8.39465 8.01957 8.20711 8.2071C8.01957 8.39464 7.76522 8.5 7.5 8.5C7.23479 8.5 6.98043 8.39464 6.7929 8.2071C6.60536 8.01957 6.5 7.76521 6.5 7.5C6.49636 6.64916 6.80279 5.82613 7.36197 5.18483C7.92114 4.54353 8.69478 4.12789 9.53819 4.01563C10.3816 3.90337 11.237 4.10219 11.9445 4.57489C12.6519 5.0476 13.163 5.76183 13.382 6.584C13.5742 7.3065 13.5314 8.07144 13.2597 8.76796C12.988 9.46449 12.5016 10.0564 11.871 10.458Z" fill="white"/>
</g>
<defs>
<clipPath id="clip0_4_637">
<rect width="20" height="20" fill="white"/>
</clipPath>
</defs>
</svg>
