<svg width="24" height="24" viewBox="0 0 24 24" fill="none" xmlns="http://www.w3.org/2000/svg">
<path d="M16.7621 8.66667V6.7619C16.7621 4.13355 14.6287 2 12.0002 2C9.37156 2 7.23825 4.13355 7.23825 6.7619V8.66667C5.66692 8.66667 4.3811 9.95248 4.3811 11.5238V19.1429C4.3811 20.7142 5.66692 22 7.23825 22H16.7621C18.3334 22 19.6192 20.7142 19.6192 19.1429V11.5238C19.6192 9.95245 18.3334 8.66667 16.7621 8.66667ZM12.9525 16.0285V17.2381C12.9525 17.7617 12.524 18.1904 12.0002 18.1904C11.4763 18.1904 11.0478 17.7617 11.0478 17.2381V16.0285C10.4762 15.6951 10.0954 15.0859 10.0954 14.3809C10.0954 13.3332 10.9525 12.4762 12.0002 12.4762C13.0478 12.4762 13.9049 13.3332 13.9049 14.3809C13.9049 15.0859 13.5241 15.6951 12.9525 16.0285ZM9.14301 6.7619C9.14301 5.19058 10.4288 3.90476 12.0002 3.90476C13.5715 3.90476 14.8573 5.19058 14.8573 6.7619V8.66667H9.14301V6.7619Z" fill="#4C4D4D"/>
</svg>
