<svg width="134" height="134" viewBox="0 0 134 134" fill="none" xmlns="http://www.w3.org/2000/svg">
<path d="M133.959 69.6276C132.67 104.739 103.825 133.204 68.7347 133.998C68.4373 133.998 68.2391 133.998 67.9417 133.998C55.9476 134.196 49.5045 119.815 57.5336 110.888L65.0671 102.457C66.6531 100.672 69.1312 100.176 71.3119 100.97C75.4752 102.557 81.6209 103.251 85.7841 99.0852L102.14 82.8191C102.536 82.4223 102.834 81.8272 102.834 81.2321C102.834 80.637 102.536 80.0419 102.041 79.546C101.148 78.7525 99.7606 78.9509 98.8685 79.7444L86.2797 92.3407C85.8832 92.7375 85.2885 93.035 84.6937 93.035C83.9007 93.035 83.0086 92.5391 82.6121 91.6464C82.2156 90.7538 82.513 89.7619 83.2069 89.0677L95.7957 76.4713C96.1922 76.0746 96.4895 75.4795 96.4895 74.8844C96.4895 74.3884 96.2913 73.7933 95.8948 73.3966C95.0027 72.4048 93.5158 72.5039 92.6237 73.3966L79.9357 86.0921C79.5392 86.4889 78.9445 86.7864 78.3498 86.7864C77.755 86.7864 77.1603 86.5881 76.7638 86.0921C76.3673 85.6954 76.0699 85.1003 76.0699 84.5052C76.0699 83.9101 76.2681 83.4142 76.7638 82.9183L89.3526 70.3219C90.0464 69.6276 90.3438 68.6358 89.9473 67.7431C89.5508 66.8505 88.7578 66.3545 87.8657 66.3545C87.271 66.3545 86.6762 66.5529 86.2797 67.0488L73.79 79.6452C72.7988 80.637 71.2128 80.637 70.4198 79.546C70.1224 79.1493 69.9242 78.6533 69.9242 78.1574C69.9242 77.5623 70.1224 76.9672 70.618 76.5705L83.2069 63.9741C83.9999 63.0815 84.1981 61.7921 83.4051 60.8994C82.9095 60.4035 82.3147 60.106 81.72 60.106C81.1252 60.106 80.5305 60.3043 80.134 60.8002L63.5802 77.1656C59.417 81.3313 60.1109 87.4807 61.6968 91.6464C62.589 93.8285 61.9942 96.3081 60.21 97.895L44.7466 111.781C36.1227 119.517 22.5427 118.724 15.2075 109.698C5.29501 97.4983 -0.553335 81.7281 0.0414117 64.47C1.42915 29.3589 30.2744 0.992342 65.3644 0.0996868C65.6618 0.0996868 65.8601 0.0996868 66.1574 0.0996868C78.1515 -0.0986811 84.5946 14.283 76.5655 23.2095L68.7347 31.8385C67.3469 33.4255 65.0671 33.9214 63.0846 33.1279C58.8222 31.4418 52.5774 30.5491 48.2159 34.9132L41.2772 41.8561C35.2306 48.0055 35.2306 57.8247 41.2772 63.9741C47.4229 70.0243 57.2362 70.0243 63.382 63.9741L70.3207 57.0313C74.583 52.7663 73.79 46.4186 72.1049 42.2529C71.3119 40.2692 71.8075 37.9879 73.3935 36.5994L89.1543 22.5153C97.7782 14.7789 111.259 15.5724 118.693 24.5981C128.705 36.6986 134.553 52.4688 133.959 69.6276Z" fill="url(#paint0_linear_3_968)"/>
<defs>
<linearGradient id="paint0_linear_3_968" x1="10.9037" y1="9.11734" x2="84.6532" y2="0.497227" gradientUnits="userSpaceOnUse">
<stop stop-color="#54EB63"/>
<stop offset="0.9813" stop-color="#05CC31"/>
</linearGradient>
</defs>
</svg>
