<svg width="36" height="36" viewBox="0 0 36 36" fill="none" xmlns="http://www.w3.org/2000/svg">
<circle cx="18" cy="18" r="18" fill="#E0DBCD" fill-opacity="0.3"/>
<circle cx="18" cy="18" r="17.5" stroke="url(#paint0_linear_4_1744)" stroke-opacity="0.2"/>
<path d="M25.03 21.68C23.9 20.72 23.25 19.32 23.25 17.84V15.75C23.25 13.11 21.29 10.93 18.75 10.56V9.75C18.75 9.34 18.41 9 18 9C17.59 9 17.25 9.34 17.25 9.75V10.56C14.71 10.93 12.75 13.11 12.75 15.75V17.84C12.75 19.32 12.1 20.73 10.96 21.69C10.67 21.94 10.5 22.3 10.5 22.69C10.5 23.41 11.09 24 11.81 24H24.19C24.91 24 25.5 23.41 25.5 22.69C25.5 22.3 25.33 21.94 25.03 21.68Z" fill="#989CA1"/>
<path d="M18 27C19.36 27 20.49 26.03 20.76 24.75H15.24C15.51 26.03 16.64 27 18 27Z" fill="#989CA1"/>
<defs>
<linearGradient id="paint0_linear_4_1744" x1="-7.36376e-07" y1="0.617147" x2="42.3534" y2="8.68422" gradientUnits="userSpaceOnUse">
<stop stop-color="white" stop-opacity="0.58"/>
<stop offset="1" stop-color="white" stop-opacity="0.12"/>
</linearGradient>
</defs>
</svg>
