<svg width="24" height="26" viewBox="0 0 24 26" fill="none" xmlns="http://www.w3.org/2000/svg">
<path opacity="0.5" fill-rule="evenodd" clip-rule="evenodd" d="M5.87357 4.87348C7.23321 3.51384 9.07728 2.75 11.0001 2.75C12.9229 2.75 14.767 3.51384 16.1266 4.87348C17.4863 6.23311 18.2501 8.07718 18.2501 10C18.2501 13.3158 18.9589 15.3558 19.5975 16.5264C19.9185 17.1149 20.2286 17.4965 20.4388 17.7184C20.5442 17.8297 20.6254 17.9018 20.6714 17.9401C20.6928 17.958 20.7067 17.9685 20.7118 17.9724C21.1572 18.2808 21.3539 18.8421 21.1965 19.3622C21.0368 19.8894 20.5509 20.25 20.0001 20.25H2.0001C1.44926 20.25 0.963355 19.8894 0.803732 19.3622C0.646255 18.8421 0.842973 18.2808 1.28837 17.9724C1.29341 17.9689 1.29847 17.9655 1.30356 17.962L1.3007 17.964L1.29573 17.9674L1.28893 17.9721C1.28714 17.9733 1.28621 17.974 1.28611 17.9741C1.28604 17.9741 1.28646 17.9738 1.28736 17.9732C1.28765 17.9729 1.28799 17.9727 1.28837 17.9724C1.29353 17.9685 1.30736 17.958 1.32877 17.9401C1.37479 17.9018 1.45597 17.8297 1.56141 17.7184C1.77163 17.4965 2.08173 17.1149 2.40273 16.5264C3.04126 15.3558 3.7501 13.3158 3.7501 10C3.7501 8.07718 4.51393 6.23311 5.87357 4.87348ZM1.30356 17.962C1.30358 17.962 1.30359 17.962 1.30361 17.962L1.30358 17.962L1.30356 17.962ZM17.4172 17.75C17.4124 17.7412 17.4075 17.7324 17.4027 17.7236C16.5413 16.1442 15.7501 13.6842 15.7501 10C15.7501 8.74022 15.2497 7.53204 14.3589 6.64124C13.4681 5.75045 12.2599 5.25 11.0001 5.25C9.74032 5.25 8.53214 5.75044 7.64134 6.64124C6.75054 7.53204 6.2501 8.74022 6.2501 10C6.2501 13.6842 5.45893 16.1442 4.59747 17.7236C4.59264 17.7324 4.58782 17.7412 4.583 17.75H17.4172ZM1.30513 17.961C1.30512 17.961 1.30512 17.961 1.30511 17.961L1.30486 17.9612C1.30495 17.9611 1.30504 17.9611 1.30513 17.961Z" fill="#319979"/>
<path opacity="0.5" fill-rule="evenodd" clip-rule="evenodd" d="M8.64301 21.9187C9.24017 21.5723 10.0051 21.7756 10.3515 22.3727C10.4174 22.4864 10.512 22.5807 10.6259 22.6463C10.7397 22.7119 10.8688 22.7464 11.0002 22.7464C11.1316 22.7464 11.2607 22.7119 11.3746 22.6463C11.4884 22.5807 11.583 22.4864 11.649 22.3727C11.9954 21.7756 12.7603 21.5723 13.3574 21.9187C13.9546 22.2651 14.1579 23.03 13.8115 23.6272C13.5258 24.1197 13.1157 24.5285 12.6223 24.8127C12.129 25.0968 11.5696 25.2464 11.0002 25.2464C10.4309 25.2464 9.87149 25.0968 9.37811 24.8127C8.88473 24.5285 8.47467 24.1197 8.18898 23.6272C7.84257 23.03 8.04585 22.2651 8.64301 21.9187Z" fill="#319979"/>
</svg>
