<svg width="20" height="23" viewBox="0 0 20 23" fill="none" xmlns="http://www.w3.org/2000/svg">
<path d="M15.7143 14.375C14.705 14.375 13.7774 14.7262 13.0451 15.3136L8.46982 12.4362C8.60531 11.8195 8.60531 11.1805 8.46982 10.5637L13.0451 7.68631C13.7774 8.27376 14.705 8.625 15.7143 8.625C18.0812 8.625 20 6.69421 20 4.3125C20 1.93079 18.0812 0 15.7143 0C13.3474 0 11.4286 1.93079 11.4286 4.3125C11.4286 4.63405 11.4638 4.94725 11.5302 5.24872L6.95491 8.12614C6.22263 7.53874 5.295 7.1875 4.28571 7.1875C1.91879 7.1875 0 9.11829 0 11.5C0 13.8817 1.91879 15.8125 4.28571 15.8125C5.295 15.8125 6.22263 15.4613 6.95491 14.8739L11.5302 17.7513C11.4626 18.0587 11.4285 18.3726 11.4286 18.6875C11.4286 21.0692 13.3474 23 15.7143 23C18.0812 23 20 21.0692 20 18.6875C20 16.3058 18.0812 14.375 15.7143 14.375Z" fill="#4F5B79"/>
</svg>
