<svg width="24" height="22" viewBox="0 0 24 22" fill="none" xmlns="http://www.w3.org/2000/svg">
<path d="M21.7959 14.7273C21.3062 14.7273 20.8164 15.0955 20.8164 15.7091V18.1636C20.8164 19.0227 20.0816 19.6364 19.347 19.6364H16.898C16.4082 19.6364 15.9185 20.0045 15.9185 20.6182C15.9185 21.2318 16.2858 21.6001 16.898 21.6001H19.347C21.1837 21.6001 22.7755 20.1273 22.7755 18.1636V15.7091C22.7755 15.2182 22.2858 14.7273 21.7959 14.7273Z" fill="#319979" fill-opacity="0.5"/>
<path d="M16.898 1.96364H19.347C20.2041 1.96364 20.8164 2.7 20.8164 3.43637V5.89091C20.8164 6.38182 21.1838 6.87272 21.7961 6.87272C22.4083 6.87272 22.7756 6.50455 22.7756 5.89091V3.43637C22.7756 1.59546 21.3062 0 19.347 0H16.898C16.4083 0 15.9185 0.368184 15.9185 0.981816C15.9185 1.59546 16.4083 1.96364 16.898 1.96364Z" fill="#319979" fill-opacity="0.5"/>
<path d="M7.1019 19.6364H4.65293C3.79579 19.6364 3.18354 18.9001 3.18354 18.1636V15.7091C3.18354 15.2182 2.8162 14.7273 2.20395 14.7273C1.59171 14.7273 1.22437 15.2182 1.22437 15.7091V18.1636C1.22437 20.0045 2.69375 21.6001 4.65293 21.6001H7.1019C7.59171 21.6001 8.0815 21.2318 8.0815 20.6182C8.0815 20.0045 7.59171 19.6364 7.1019 19.6364Z" fill="#319979" fill-opacity="0.5"/>
<path d="M2.20395 6.87272C2.69375 6.87272 3.18354 6.50455 3.18354 5.89091V3.43637C3.18354 2.57728 3.91825 1.96364 4.65293 1.96364H7.10192C7.59171 1.96364 8.0815 1.59546 8.0815 0.981816C8.0815 0.368184 7.59171 0 7.10192 0H4.65293C2.8162 0 1.22437 1.59546 1.22437 3.43637V5.89091C1.22437 6.38182 1.71416 6.87272 2.20395 6.87272Z" fill="#319979" fill-opacity="0.5"/>
<path d="M16.8979 18.1636C18.2449 18.1636 19.347 17.0591 19.347 15.7091V13.5H4.65308V15.7091C4.65308 17.0591 5.75512 18.1636 7.10206 18.1636H16.8979Z" fill="#319979" fill-opacity="0.5"/>
<path d="M23.0204 9.81818H19.347V5.89094C19.347 4.54094 18.2449 3.4364 16.8979 3.4364H7.10204C5.7551 3.4364 4.65306 4.54094 4.65306 5.89094V10.0637H0.979596C0.489792 10.0637 0 10.4319 0 11.0455C0 11.6591 0.367344 12.0273 0.979596 12.0273H23.0204C23.5102 12.0273 24 11.6591 24 11.0455C24 10.4319 23.5102 9.81818 23.0204 9.81818Z" fill="#319979" fill-opacity="0.5"/>
</svg>
