<svg width="24" height="24" viewBox="0 0 24 24" fill="none" xmlns="http://www.w3.org/2000/svg">
<path fill-rule="evenodd" clip-rule="evenodd" d="M21.3983 13.1334C20.21 15.1148 17.2151 19 12.0001 19C6.78504 19 3.79014 15.1148 2.60186 13.1334C2.17959 12.4292 2.17959 11.5708 2.60186 10.8666C3.79014 8.88521 6.78504 5 12.0001 5C17.2151 5 20.21 8.88521 21.3983 10.8666C21.8205 11.5708 21.8205 12.4292 21.3983 13.1334ZM12.0001 15C13.6569 15 15.0001 13.6569 15.0001 12C15.0001 10.3431 13.6569 9 12.0001 9C10.3432 9 9.00007 10.3431 9.00007 12C9.00007 13.6569 10.3432 15 12.0001 15Z" fill="#343434" fill-opacity="0.7"/>
</svg>
